# xmcd
#
# Track frame offsets: 
#        150
#        27346
#        48043
#        69627
#        84251
#        101037
#        127688
#        165798
#        185679
#        200582
#        216759
#
# Disc length: 3471 seconds
#
# Revision: 0
# Processed by: cddbd v1.5.2PL0 Copyright (c) Steve Scherf et al.
# Submitted via: ExactAudioCopy v0.99pb4
#
DISCID=890d8d0b
DTITLE=Township - Coming Home
DYEAR=2007
DGENRE=Rock
TTITLE0=Round The Dust
TTITLE1=Highway
TTITLE2=Baby Rock Me
TTITLE3=Millions of People
TTITLE4=Sandy
TTITLE5=Jesus
TTITLE6=Home
TTITLE7=Big Bad
TTITLE8=Crawl Back
TTITLE9=Boo Hoo
TTITLE10=With You All Along
EXTD=
EXTT0=
EXTT1=
EXTT2=
EXTT3=
EXTT4=
EXTT5=
EXTT6=
EXTT7=
EXTT8=
EXTT9=
EXTT10=
PLAYORDER=
